<?xml version="1.0" standalone="no"?>
<!DOCTYPE svg PUBLIC "-//W3C//DTD SVG 20010904//EN"
 "http://www.w3.org/TR/2001/REC-SVG-20010904/DTD/svg10.dtd">
<svg version="1.0" xmlns="http://www.w3.org/2000/svg"
 width="450.000000pt" height="360.000000pt" viewBox="0 0 450.000000 360.000000"
 preserveAspectRatio="xMidYMid meet">
<metadata>
Created by potrace 1.16, written by Peter Selinger 2001-2019
</metadata>
<g transform="translate(0.000000,360.000000) scale(0.100000,-0.100000)"
fill="#000000" stroke="none">
<path d="M2290 2673 c-74 -83 -85 -100 -82 -128 2 -28 -1 -33 -28 -41 -26 -7
-43 -29 -98 -123 -64 -110 -69 -116 -118 -135 -41 -17 -65 -38 -119 -101 -37
-44 -69 -82 -71 -84 -2 -2 -38 27 -80 65 l-77 68 -66 -72 c-60 -66 -70 -73
-113 -78 -44 -6 -56 -15 -160 -116 -108 -104 -106 -111 8 -26 28 21 54 38 57
38 4 0 7 -11 7 -25 l0 -25 40 25 c51 32 56 32 64 -7 l7 -33 50 53 c45 46 55
52 91 52 37 0 40 2 33 23 -12 35 -18 107 -9 107 12 0 114 -80 114 -89 0 -20
-48 -65 -148 -142 -135 -103 -139 -107 -72 -74 53 27 55 27 125 14 38 -7 73
-14 77 -14 4 0 33 38 65 85 l58 85 100 23 100 23 66 -29 c36 -16 109 -58 160
-93 52 -34 87 -54 79 -43 -109 144 -147 179 -269 247 -66 38 -123 73 -126 77
-3 5 12 14 33 20 34 11 45 24 111 131 55 90 81 124 107 137 19 10 42 32 52 49
19 35 88 113 99 113 17 0 53 -69 59 -113 l7 -47 -52 0 -53 0 -83 -87 -83 -88
62 -3 c61 -3 62 -3 90 -48 16 -25 46 -56 67 -69 91 -58 203 -115 256 -130 59
-17 106 -48 181 -119 l43 -41 -6 45 -6 45 19 -23 c11 -12 25 -44 31 -70 5 -26
17 -65 26 -87 l15 -40 -3 62 c-4 69 0 73 60 73 37 0 37 0 207 -149 l30 -26
-31 40 c-139 179 -274 328 -328 363 -58 38 -63 45 -135 182 l-74 143 -83 53
-82 53 -56 111 c-30 60 -56 110 -58 110 -1 -1 -40 -44 -87 -97z m360 -378 c35
-18 56 -39 90 -94 38 -60 58 -80 128 -127 46 -30 82 -57 80 -60 -8 -8 -193 77
-208 95 -8 10 -38 34 -66 52 -48 32 -154 143 -154 162 0 14 82 -4 130 -28z"/>
<path d="M3033 2455 c-20 -33 -38 -48 -67 -57 -33 -11 -49 -28 -103 -108 l-65
-95 56 54 c58 57 86 63 47 10 l-23 -30 29 14 c20 11 36 33 52 72 15 36 28 54
36 51 7 -2 28 6 46 20 18 13 36 24 40 24 4 0 17 -16 29 -35 l22 -35 -46 -65
c-44 -61 -45 -64 -17 -47 28 16 33 16 98 -1 37 -10 71 -22 75 -26 4 -3 3 -33
-2 -65 -7 -44 -6 -65 5 -89 13 -31 13 -32 14 -6 1 37 32 61 72 57 l34 -3 10
-82 c6 -45 14 -85 17 -88 3 -4 12 19 19 50 11 49 29 84 29 57 0 -14 120 -70
210 -98 41 -13 77 -24 80 -24 3 0 -48 28 -113 63 -136 72 -183 113 -273 244
-59 83 -69 93 -114 108 -45 15 -55 24 -102 96 -29 43 -56 79 -60 79 -3 0 -19
-20 -35 -45z"/>
<path d="M3896 1883 c-10 -98 -24 -148 -64 -233 -71 -151 -224 -266 -427 -321
-100 -27 -390 -37 -547 -19 -291 33 -518 93 -963 253 -300 108 -369 130 -500
162 -285 71 -512 47 -716 -75 -103 -63 -134 -90 -67 -60 104 46 196 63 343 63
77 1 169 -5 205 -12 151 -29 345 -103 725 -276 484 -220 796 -306 1165 -321
346 -15 572 49 730 206 80 79 122 147 161 260 33 97 31 246 -5 358 -15 45 -28
82 -30 82 -2 0 -6 -30 -10 -67z"/>
</g>
</svg>
