<svg version="1.2" xmlns="http://www.w3.org/2000/svg" viewBox="0 0 450 450" width="450" height="450">
	<title>img-logo</title>
	<style>
		.s0 { fill: #fcfcfc } 
		.s1 { fill: #353535 } 
	</style>
	<g id="Background">
		<path id="Path 0" class="s0" d="m0 450v-450h450v450z"/>
		<path id="Path 1" fill-rule="evenodd" class="s1" d="m208 61h35l39 9 41 22 26 24 20 28 13 30 7 33v36l-1 6-8 3-1-14-2 16-18 4-83-1 20-3-4-7 3-7-2-13 8-14 8-5v-11l-48-4 1 60h-4l-1-60h-79l-27 3-3 4-25-17 13-13h8l3-6 6-1 12-17 22-16 8 1 1-10h-9l-3-3 14-4 6-23-4-13-16-1-13 10 12 7-4 2 1 2 8 1-2 7-5-4-4 1 6 6-1 3-6-1 3 4-8-1-2-4-9 1 12-7v-4l-9-5-12 14 3 5-6 1-7 11h-4l5-9-3-1-6 6-14-1-6 7-1 10-13-6-11 3 2-5 26-29 23-17 35-16zm-38 61l9 2v4l-26 17 1 4-5-1-4 3 2 5-6-2-6 5 3 3-9 1-19 19 34 24 4 6h6l25-11h11l3 3-27 21 3 7-7-1-3 13 9 2v3l-11 2-4 15-7-9-1-21-8-1 7-3-1-10-45-22-6 15-2 16 3 3-5 1-1 6 3 3h-4l1 10h-3l-5 32h-5l-3-4-2-39-13-5 3-8 9 4-1-23-3 1-10-7 3-6 9 3-3-28-20-12-12-13v-5h10l32 17 25-9-6-4 2-8 14 8 20-8-8-6 3-6 15 8zm225 63l10 10 13 23 5 17v18l-4 11-10 11-24 10-25 3-30-1-1 6-47-5-38-12-21-12 39 15 38 10 20 2v-6l-31-5-37-11-73-33 67 22 49 11 33 4 54-2 19-8 8-9 4-11-2-27zm-291 27l11 5-6 8v15l3 5 3 1 1-16 3 4v14l4-1 2-8 4-2 1 14h8l3 14-11-8-10-2 7 35 9 24 24 9 30 6-4-9-13-6-18-20 9-38 25 1-1-7 5 2v5h9l3 3-10 1 2 4 15 4 10 12 29 9-1 10-7 5-1 15-12 9v3l20-3 5-42 4 1v8l-5 34 36-7 22-8 7-16h5l-4 9 2 2 11-6 5-9 36 1-19 31-22 23-41 26-49 13h-35l-31-6-33-14-28-20-21-22-18-29 6-3 17 29 30 29 31 18 23 7-29-25-22-37-24-12-22-19 2-5 20 19 21 11-10-30-4-27-17-4v-9l3-3-3-9zm303 13l1 16-4 10-16 12-22 5-59-2h41l35-7 19-14z"/>
		<path id="Path 2" fill-rule="evenodd" class="s0" d="m236 67l16 3 25 15 22 24 10 19-6-3 1-5h-5l1-3h-4v7l4-1v3h-3l-17-6-27-4-6-22 6-7-4-3-1-7zm28 4l18 5 29 15-2 5 5 7-2 11 2 4 5 5 6-3 10 12-1-12-7-6-2-6 2-1 9 14 8 2-4 2 4 3-3 2 3 5-1 2-12-2-6-12-2 2 7 10-12-1-23-37zm-95 5l2 3-4 2h6l-8 3-5-2-1 4h8l-9 3-6 6 3 4-5 6h-2l2-4h-4l2-11-6 4v3l3-1-2 7-6 6-11-1 9-5 3-8-3 3h-4l2-3zm71 17l4 2 4 20-23-1 2-13 10-3zm-36 10l10 12h-12zm50 17l39 8-1 10 8-2-1-5h3l4 3-2 4h6l-4 5h11l1 4-6 3 9 7 1 9-16-2 3 21h6l2 3 11-6 1 9-13-1-1 4h-3l-51-5zm-54 1h50l7 67-64 1 3-36 9 2-1-6-7-3zm-9 23l2 2-4 5 3 4-3 34-37 3 1-9 11-7 3-9 13-5-6 5 3 1 11-9v-3l-2 4-8-2-2-4 3-3-13 5 12-9zm147 21h4l14 21 1-6-3-4 4-1 7 19-2-13 6 2 2-2-3 4 1 7 3 6 7 2v11l-30-10-3-13-13 1v-11l-3-5 2-6 5 1zm-9 145l-23 45 9-2 18-15 1 3-31 23-39 15 15-10 17-17 21-36zm-189 10l22 8 29 5 6 21 18 30-24-7-17-11-21-22zm168 0l2 2-9 16-25 28-17 11-23 7 9-18 8-32 35-6zm-71 15h11v4l-8 28-7 13-5 4h-7l-4-5 9 1-9-5-3-10v-8l5-3-1-4 5-2 5-12z"/>
	</g>
</svg>